HIERARCHY
ROOT Hips
{
	OFFSET 0.000000 100.481300 0.000000
	CHANNELS 6 Xposition Yposition Zposition Xrotation Yrotation Zrotation
	JOINT Spine
	{
		OFFSET -0.279200 12.230698 -2.892100
		CHANNELS 3 Xrotation Yrotation Zrotation
		JOINT Spine1
		{
			OFFSET -0.325700 14.269203 -3.374200
			CHANNELS 3 Xrotation Yrotation Zrotation
			JOINT Spine2
			{
				OFFSET -0.372300 16.307602 -0.352600
				CHANNELS 3 Xrotation Yrotation Zrotation
				JOINT Neck
				{
					OFFSET -0.418800 17.814194 8.416900
					CHANNELS 3 Xrotation Yrotation Zrotation
					JOINT Head
					{
						OFFSET 0.000000 7.031097 3.806800
						CHANNELS 3 Xrotation Yrotation Zrotation
						JOINT HeadTop_End
						{
							OFFSET 0.000000 24.646606 12.978600
							CHANNELS 3 Xrotation Yrotation Zrotation
							End Site
							{
								OFFSET 0.000000 27.854965 0.000000
							}
						}
					}
				}
				JOINT LeftShoulder
				{
					OFFSET 16.952999 14.495407 -7.737500
					CHANNELS 3 Xrotation Yrotation Zrotation
					JOINT LeftArm
					{
						OFFSET 9.308998 -2.777710 0.208600
						CHANNELS 3 Xrotation Yrotation Zrotation
						JOINT LeftForeArm
						{
							OFFSET 29.972298 0.000000 0.000000
							CHANNELS 3 Xrotation Yrotation Zrotation
							JOINT LeftHand
							{
								OFFSET 26.026505 0.000000 0.000000
								CHANNELS 3 Xrotation Yrotation Zrotation
								JOINT LeftHandThumb1
								{
									OFFSET 12.240501 -7.147949 9.207150
									CHANNELS 3 Xrotation Yrotation Zrotation
									JOINT LeftHandThumb2
									{
										OFFSET 4.138618 -2.389435 2.389433
										CHANNELS 3 Xrotation Yrotation Zrotation
										JOINT LeftHandThumb3
										{
											OFFSET 2.726913 -1.574387 1.574386
											CHANNELS 3 Xrotation Yrotation Zrotation
											JOINT LeftHandThumb4
											{
												OFFSET 3.941010 -2.275345 2.275342
												CHANNELS 3 Xrotation Yrotation Zrotation
												End Site
												{
													OFFSET -0.005798 5.087799 0.009903
												}
											}
										}
									}
								}
								JOINT LeftHandIndex1
								{
									OFFSET 24.424698 -1.985611 5.953459
									CHANNELS 3 Xrotation Yrotation Zrotation
									JOINT LeftHandIndex2
									{
										OFFSET 6.426697 0.000000 0.000000
										CHANNELS 3 Xrotation Yrotation Zrotation
										JOINT LeftHandIndex3
										{
											OFFSET 5.337898 0.000000 0.000000
											CHANNELS 3 Xrotation Yrotation Zrotation
											JOINT LeftHandIndex4
											{
												OFFSET 4.409401 0.000000 0.000000
												CHANNELS 3 Xrotation Yrotation Zrotation
												End Site
												{
													OFFSET 0.000000 4.409363 0.014373
												}
											}
										}
									}
								}
								JOINT LeftHandMiddle1
								{
									OFFSET 23.810104 0.000000 0.000000
									CHANNELS 3 Xrotation Yrotation Zrotation
									JOINT LeftHandMiddle2
									{
										OFFSET 7.176498 0.000000 0.000000
										CHANNELS 3 Xrotation Yrotation Zrotation
										JOINT LeftHandMiddle3
										{
											OFFSET 6.774902 0.000000 0.000000
											CHANNELS 3 Xrotation Yrotation Zrotation
											JOINT LeftHandMiddle4
											{
												OFFSET 5.403328 0.000000 0.000000
												CHANNELS 3 Xrotation Yrotation Zrotation
												End Site
												{
													OFFSET -0.027702 5.403244 0.017414
												}
											}
										}
									}
								}
								JOINT LeftHandRing1
								{
									OFFSET 22.908401 -0.839279 -6.020567
									CHANNELS 3 Xrotation Yrotation Zrotation
									JOINT LeftHandRing2
									{
										OFFSET 6.337502 0.000000 0.000000
										CHANNELS 3 Xrotation Yrotation Zrotation
										JOINT LeftHandRing3
										{
											OFFSET 5.779297 0.000000 0.000000
											CHANNELS 3 Xrotation Yrotation Zrotation
											JOINT LeftHandRing4
											{
												OFFSET 4.965698 0.000000 0.000000
												CHANNELS 3 Xrotation Yrotation Zrotation
												End Site
												{
													OFFSET 0.000000 4.965668 0.016186
												}
											}
										}
									}
								}
								JOINT LeftHandPinky1
								{
									OFFSET 20.037003 -1.530319 -10.950146
									CHANNELS 3 Xrotation Yrotation Zrotation
									JOINT LeftHandPinky2
									{
										OFFSET 5.254700 0.000000 0.000000
										CHANNELS 3 Xrotation Yrotation Zrotation
										JOINT LeftHandPinky3
										{
											OFFSET 4.810204 0.000000 0.000000
											CHANNELS 3 Xrotation Yrotation Zrotation
											JOINT LeftHandPinky4
											{
												OFFSET 3.647202 0.000000 0.000000
												CHANNELS 3 Xrotation Yrotation Zrotation
												End Site
												{
													OFFSET 0.000000 3.647186 0.011889
												}
											}
										}
									}
								}
							}
						}
					}
				}
				JOINT RightShoulder
				{
					OFFSET -15.141001 14.495407 -7.737500
					CHANNELS 3 Xrotation Yrotation Zrotation
					JOINT RightArm
					{
						OFFSET -9.308998 -2.777710 0.208500
						CHANNELS 3 Xrotation Yrotation Zrotation
						JOINT RightForeArm
						{
							OFFSET -29.972300 0.000000 0.000000
							CHANNELS 3 Xrotation Yrotation Zrotation
							JOINT RightHand
							{
								OFFSET -26.026505 0.000000 0.000000
								CHANNELS 3 Xrotation Yrotation Zrotation
								JOINT RightHandThumb1
								{
									OFFSET -12.240601 -7.148026 9.207092
									CHANNELS 3 Xrotation Yrotation Zrotation
									JOINT RightHandThumb2
									{
										OFFSET -4.138618 -2.389435 2.389433
										CHANNELS 3 Xrotation Yrotation Zrotation
										JOINT RightHandThumb3
										{
											OFFSET -2.726974 -1.574417 1.574421
											CHANNELS 3 Xrotation Yrotation Zrotation
											JOINT RightHandThumb4
											{
												OFFSET -3.941010 -2.275345 2.275343
												CHANNELS 3 Xrotation Yrotation Zrotation
												End Site
												{
													OFFSET 0.005814 5.087799 0.009927
												}
											}
										}
									}
								}
								JOINT RightHandIndex1
								{
									OFFSET -24.424698 -1.985657 5.953444
									CHANNELS 3 Xrotation Yrotation Zrotation
									JOINT RightHandIndex2
									{
										OFFSET -6.426697 0.000000 0.000000
										CHANNELS 3 Xrotation Yrotation Zrotation
										JOINT RightHandIndex3
										{
											OFFSET -5.337898 0.000000 0.000000
											CHANNELS 3 Xrotation Yrotation Zrotation
											JOINT RightHandIndex4
											{
												OFFSET -4.409401 0.000000 0.000000
												CHANNELS 3 Xrotation Yrotation Zrotation
												End Site
												{
													OFFSET 0.000000 4.409363 0.014408
												}
											}
										}
									}
								}
								JOINT RightHandMiddle1
								{
									OFFSET -23.810097 0.000000 0.000000
									CHANNELS 3 Xrotation Yrotation Zrotation
									JOINT RightHandMiddle2
									{
										OFFSET -7.176498 0.000000 0.000000
										CHANNELS 3 Xrotation Yrotation Zrotation
										JOINT RightHandMiddle3
										{
											OFFSET -6.774902 0.000000 0.000000
											CHANNELS 3 Xrotation Yrotation Zrotation
											JOINT RightHandMiddle4
											{
												OFFSET -5.403328 0.000000 0.000000
												CHANNELS 3 Xrotation Yrotation Zrotation
												End Site
												{
													OFFSET 0.027702 5.403244 0.017457
												}
											}
										}
									}
								}
								JOINT RightHandRing1
								{
									OFFSET -22.908302 -0.839325 -6.020576
									CHANNELS 3 Xrotation Yrotation Zrotation
									JOINT RightHandRing2
									{
										OFFSET -6.337502 0.000000 0.000000
										CHANNELS 3 Xrotation Yrotation Zrotation
										JOINT RightHandRing3
										{
											OFFSET -5.779297 0.000000 0.000000
											CHANNELS 3 Xrotation Yrotation Zrotation
											JOINT RightHandRing4
											{
												OFFSET -4.965698 0.000000 0.000000
												CHANNELS 3 Xrotation Yrotation Zrotation
												End Site
												{
													OFFSET 0.000000 4.965668 0.016226
												}
											}
										}
									}
								}
								JOINT RightHandPinky1
								{
									OFFSET -20.037003 -1.530334 -10.950259
									CHANNELS 3 Xrotation Yrotation Zrotation
									JOINT RightHandPinky2
									{
										OFFSET -5.254700 0.000000 0.000000
										CHANNELS 3 Xrotation Yrotation Zrotation
										JOINT RightHandPinky3
										{
											OFFSET -4.810204 0.000000 0.000000
											CHANNELS 3 Xrotation Yrotation Zrotation
											JOINT RightHandPinky4
											{
												OFFSET -3.647202 0.000000 0.000000
												CHANNELS 3 Xrotation Yrotation Zrotation
												End Site
												{
													OFFSET 0.000000 3.647186 0.011917
												}
											}
										}
									}
								}
							}
						}
					}
				}
			}
		}
	}
	JOINT LeftUpLeg
	{
		OFFSET 15.427100 -6.655098 0.678600
		CHANNELS 3 Xrotation Yrotation Zrotation
		JOINT LeftLeg
		{
			OFFSET 4.081073 -39.591068 13.024000
			CHANNELS 3 Xrotation Yrotation Zrotation
			JOINT LeftFoot
			{
				OFFSET -4.081074 -37.707932 -15.979700
				CHANNELS 3 Xrotation Yrotation Zrotation
				JOINT LeftToeBase
				{
					OFFSET 5.346399 -15.068900 20.645000
					CHANNELS 3 Xrotation Yrotation Zrotation
					JOINT LeftToe_End
					{
						OFFSET 2.754700 0.931300 11.300900
						CHANNELS 3 Xrotation Yrotation Zrotation
						End Site
						{
							OFFSET 0.000000 11.669021 0.000000
						}
					}
				}
			}
		}
	}
	JOINT RightUpLeg
	{
		OFFSET -15.569500 -6.655098 0.678600
		CHANNELS 3 Xrotation Yrotation Zrotation
		JOINT RightLeg
		{
			OFFSET -4.081825 -39.591045 13.023800
			CHANNELS 3 Xrotation Yrotation Zrotation
			JOINT RightFoot
			{
				OFFSET 4.081824 -37.707954 -15.979600
				CHANNELS 3 Xrotation Yrotation Zrotation
				JOINT RightToeBase
				{
					OFFSET -5.346400 -15.068900 20.645000
					CHANNELS 3 Xrotation Yrotation Zrotation
					JOINT RightToe_End
					{
						OFFSET -2.754700 0.931300 11.300900
						CHANNELS 3 Xrotation Yrotation Zrotation
						End Site
						{
							OFFSET 0.000000 11.669021 0.000000
						}
					}
				}
			}
		}
	}
}
MOTION
Frames: 5
Frame Time: 0.033333
0.289024 78.875702 -0.157266 3.037468 -58.355094 6.233006 11.190391 0.276900 -2.458534 8.434598 0.027696 -5.592325 8.457046 0.027867 -5.591860 -21.555790 25.063430 12.062427 -0.294017 25.465647 -3.208738 -0.000001 -0.000000 -0.000000 -6.221685 -11.503899 -4.023814 -23.061917 9.568892 -36.639655 0.046197 -43.169965 -0.011113 22.743628 -5.685392 15.979161 -1.064252 -7.954924 8.490087 2.348216 19.995186 -2.054034 0.798906 1.237603 2.619007 -0.000001 0.000000 -0.000001 13.340906 -1.006695 10.682307 -0.131346 0.288162 -31.105839 -0.102958 0.299074 -32.256388 0.000000 0.000000 -0.000002 8.495456 -0.329566 -0.915309 0.198350 0.659018 -29.901527 0.423675 0.219374 -44.357041 0.000002 -0.000001 -0.000000 6.111742 3.150941 -16.210938 0.015825 0.312161 -30.125352 0.376051 0.812116 -42.140075 -0.000002 -0.000000 0.000001 -5.636001 7.709855 -13.878599 0.180824 0.277866 -46.588321 0.216384 0.246707 -46.286758 -0.000000 0.000001 -0.000004 -5.488244 10.658328 2.466518 -41.473896 -26.755833 30.078903 24.955247 111.863472 -23.308167 -8.702508 12.422653 -9.802002 0.265014 10.061100 -10.888471 1.369442 -17.431995 3.046486 3.345215 -13.248886 -8.250936 0.000000 0.000002 -0.000001 19.443588 11.174440 -13.340170 -0.118536 -0.311494 18.035596 -0.088647 -0.292417 23.256606 0.000001 -0.000002 -0.000001 4.320472 2.436970 -4.811708 0.356577 -0.463275 26.890550 0.471238 0.155183 39.044923 -0.000001 0.000001 -0.000001 -7.005618 -10.695100 5.719887 0.083595 -0.109690 26.155765 0.437024 -0.469227 33.265166 0.000007 -0.000002 -0.000001 -19.433555 -20.238195 5.987880 0.218996 -0.127005 36.844469 0.246282 -0.070425 36.471591 -0.000001 -0.000000 0.000000 -34.682703 8.729147 27.684707 40.318873 -8.743411 -10.519969 -7.477438 -1.700874 -10.845735 -0.310439 1.238820 0.742311 -0.000000 -0.000001 -0.000000 -31.023870 -7.189165 -29.208566 46.891284 5.288371 -6.185894 -19.302282 0.930542 23.072497 -0.351901 -0.996997 -0.771363 0.000000 0.000000 0.000000 
0.225967 78.593781 0.085105 6.189748 -57.743512 7.988629 11.139224 0.254333 -2.391593 8.330014 -0.042659 -5.440289 8.352493 -0.042592 -5.439798 -22.250774 24.734560 12.378877 -0.237155 25.461567 -3.516633 -0.000001 0.000000 -0.000001 -6.170464 -11.525773 -3.903779 -23.432040 9.206132 -36.934115 0.947259 -43.451222 0.813788 22.527878 -6.029240 15.915430 -1.101773 -7.969746 8.495785 2.348221 19.995189 -2.054062 0.798897 1.237580 2.618994 -0.000001 -0.000001 0.000002 13.363199 -1.147250 10.574593 -0.131649 0.287046 -30.797504 -0.103763 0.298038 -31.897912 -0.000002 -0.000001 -0.000000 8.522799 -0.538355 -1.106233 0.197669 0.658279 -29.610926 0.422208 0.219201 -44.132810 0.000003 -0.000001 0.000000 6.089746 2.741262 -16.461815 0.016170 0.312745 -30.226220 0.376024 0.812124 -42.131691 -0.000001 -0.000000 0.000001 -5.591931 7.266869 -14.350694 0.180926 0.277923 -46.628175 0.216511 0.246742 -46.330785 0.000001 0.000001 -0.000003 -5.269388 10.418954 3.100907 -41.431180 -26.922743 30.062699 26.327591 111.176622 -24.905684 -8.106722 13.277043 -10.550211 0.364168 9.587604 -10.817328 1.369472 -17.431970 3.046512 3.345218 -13.248885 -8.250953 -0.000004 -0.000000 0.000001 19.342199 10.977685 -12.472714 -0.117699 -0.313329 18.595837 -0.087778 -0.293562 23.672076 0.000002 0.000002 -0.000000 4.369619 2.043395 -4.486998 0.356526 -0.463261 26.945361 0.471412 0.155035 38.979415 0.000002 -0.000000 -0.000000 -6.866535 -10.964231 5.542566 0.083723 -0.108396 25.874155 0.437937 -0.469829 32.929715 0.000002 -0.000000 0.000000 -19.273366 -20.110575 5.303879 0.218462 -0.125896 35.919326 0.246240 -0.069773 35.568050 0.000000 -0.000001 0.000001 -36.261478 5.745381 27.778022 41.470972 -7.882779 -10.668650 -8.144925 -0.809379 -11.515821 -0.309306 1.195760 0.743314 -0.000000 0.000001 -0.000000 -31.910009 -6.984194 -28.470909 46.833818 4.348192 -5.948867 -19.490396 0.680620 23.652849 -0.400936 -1.007999 -0.785994 -0.000000 0.000000 -0.000000 
0.166782 77.822876 0.399469 9.661302 -56.355215 9.664379 11.016885 0.187549 -2.225958 8.080798 -0.216580 -5.069436 8.103283 -0.216449 -5.068973 -24.032898 23.789380 13.142114 -0.186253 25.387251 -4.191376 -0.000000 -0.000000 0.000001 -6.147665 -11.659535 -3.616820 -24.292731 8.024265 -37.697686 2.794937 -43.949846 2.624872 22.057867 -6.750046 15.654510 -1.201760 -8.129517 8.444343 2.348217 19.995206 -2.054052 0.798898 1.237598 2.619022 -0.000001 0.000001 0.000001 13.227651 -0.955433 10.356971 -0.132287 0.284813 -30.155750 -0.105400 0.295895 -31.152199 -0.000000 -0.000001 -0.000002 8.535586 -0.514067 -1.433951 0.196351 0.656800 -29.016266 0.416855 0.217615 -43.426377 -0.000001 -0.000000 0.000000 6.106045 2.426928 -16.837979 0.016341 0.313144 -30.294409 0.375440 0.812247 -41.950834 0.000001 -0.000000 0.000000 -5.393804 6.795521 -14.996783 0.180484 0.277697 -46.480892 0.216056 0.246555 -46.179619 0.000001 0.000002 -0.000001 -4.723318 9.806382 4.826184 -41.497402 -27.405244 29.839594 30.314852 109.495425 -29.432921 -7.293972 14.473181 -13.043651 0.379414 9.188284 -10.691396 1.369428 -17.431995 3.046488 3.345239 -13.248888 -8.250931 -0.000001 0.000002 -0.000000 19.355580 10.523213 -9.989088 -0.116043 -0.316505 20.199938 -0.084517 -0.297491 25.180619 0.000000 0.000000 -0.000000 4.639980 1.142987 -3.050441 0.355626 -0.463062 27.785080 0.469931 0.156455 39.542205 0.000000 0.000000 0.000002 -6.362767 -11.753025 5.996971 0.083627 -0.109510 26.113533 0.437737 -0.469657 33.009112 -0.000002 0.000000 -0.000001 -18.716187 -20.910300 4.324118 0.217961 -0.124643 34.891594 0.246204 -0.069089 34.594474 -0.000002 -0.000001 0.000001 -38.989985 2.031889 28.068514 43.527211 -7.368061 -11.006823 -8.916025 -0.175292 -12.013927 -0.308231 1.148074 0.744161 -0.000000 -0.000001 -0.000000 -33.008395 -6.894077 -27.964900 47.456861 3.149891 -5.561344 -20.200247 0.171323 24.588824 -0.401370 -1.023166 -0.817646 -0.000000 0.000002 -0.000000 
0.045887 76.799103 0.750965 12.923781 -54.286029 10.826923 10.835306 0.104349 -2.034120 7.712687 -0.428517 -4.585602 7.735182 -0.428484 -4.585103 -26.237968 22.318142 14.014780 -0.309761 25.146955 -4.865279 0.000000 -0.000000 -0.000000 -6.182941 -11.998630 -3.333175 -25.565740 6.105508 -38.867372 4.743439 -44.174020 4.694110 21.283938 -7.569325 15.058298 -1.368043 -8.417997 8.342227 2.348199 19.995194 -2.054026 0.798894 1.237593 2.619014 -0.000001 -0.000001 -0.000000 12.899927 -0.522597 10.366251 -0.133192 0.281443 -29.193069 -0.107784 0.292522 -30.032547 -0.000002 0.000000 -0.000002 8.515370 -0.257948 -1.613791 0.194354 0.654492 -28.124158 0.408360 0.215836 -42.137476 -0.000001 -0.000001 -0.000000 6.164548 2.293337 -17.112009 0.015821 0.312137 -30.118809 0.373575 0.812558 -41.394894 -0.000002 -0.000000 -0.000001 -5.022528 6.418522 -15.625504 0.178981 0.276785 -46.010548 0.214573 0.245937 -45.700406 0.000000 0.000000 0.000002 -3.849955 8.942937 7.515793 -42.037342 -27.937620 28.961375 36.956815 107.432285 -36.724643 -6.873784 14.746886 -16.515548 -0.042079 9.220069 -11.020024 1.369479 -17.431980 3.046497 3.345200 -13.248874 -8.250938 0.000001 0.000000 -0.000002 19.411331 9.546946 -7.083370 -0.114434 -0.319411 21.717633 -0.081317 -0.301202 26.614167 0.000001 0.000001 -0.000000 5.092657 -0.325507 -1.195374 0.355388 -0.464440 28.726324 0.468843 0.157420 40.068608 -0.000000 0.000000 0.000000 -5.475308 -13.313903 6.957413 0.083412 -0.112832 26.825577 0.436453 -0.468920 33.481263 0.000003 -0.000002 -0.000001 -17.703849 -22.849180 3.893323 0.217880 -0.124387 34.663951 0.246204 -0.068987 34.471695 -0.000002 -0.000000 -0.000001 -42.345875 -2.126162 28.335899 45.933961 -7.174493 -11.412543 -9.602183 0.198024 -12.419628 -0.307176 1.097007 0.744819 0.000000 0.000000 -0.000000 -34.141517 -7.480065 -27.870759 48.370874 2.233095 -4.803322 -21.259650 -0.408594 25.354639 -0.385115 -1.048578 -0.829970 0.000000 0.000001 -0.000000 
-0.183328 75.772072 1.133463 15.605394 -51.674442 11.168269 10.612186 0.039442 -1.859119 7.263512 -0.613980 -4.093636 7.285975 -0.613879 -4.093159 -28.242890 20.423948 14.671354 -0.755341 24.621746 -5.202813 -0.000000 0.000000 0.000000 -6.341126 -12.636180 -3.228452 -27.178849 3.550178 -40.378917 5.900336 -43.748280 6.214883 20.140020 -8.147074 14.027858 -1.617692 -8.852676 8.189440 2.348230 19.995172 -2.054043 0.798890 1.237581 2.618987 0.000001 0.000001 0.000001 12.328611 0.076995 10.965878 -0.133521 0.278346 -27.895597 -0.110932 0.287931 -28.522032 0.000001 -0.000001 -0.000000 8.439435 0.261780 -1.341473 0.187569 0.650083 -26.916910 0.395296 0.212493 -40.104187 0.000002 -0.000001 0.000001 6.278752 2.479440 -17.045593 0.013739 0.308313 -29.465409 0.369676 0.813119 -40.226143 0.000003 -0.000001 -0.000001 -4.430592 6.316965 -16.033683 0.175982 0.274922 -45.052703 0.211554 0.244689 -44.730574 -0.000002 0.000002 0.000001 -2.599021 8.146534 10.438390 -43.303959 -28.841160 27.389677 45.772752 105.592553 -46.081900 -7.447038 12.765179 -19.581503 -1.280387 9.976850 -12.410989 1.369477 -17.432021 3.046497 3.345199 -13.248878 -8.250938 0.000001 -0.000000 0.000003 19.364442 7.756047 -5.441443 -0.114948 -0.318209 21.619533 -0.081963 -0.300450 26.335444 0.000002 -0.000001 -0.000000 5.634420 -2.385347 -0.018616 0.353504 -0.467591 28.686692 0.466047 0.151743 39.505835 -0.000001 0.000002 0.000001 -4.255592 -15.832558 8.033130 0.083172 -0.116726 27.661277 0.434954 -0.468008 34.041827 0.000001 0.000002 -0.000002 -16.239463 -25.875980 4.879352 0.218512 -0.125954 35.979312 0.246242 -0.070053 35.955417 -0.000001 0.000001 -0.000000 -45.853871 -6.440777 28.431470 48.195768 -7.245876 -11.783099 -10.057096 0.298409 -12.754758 -0.306679 1.044088 0.744164 -0.000000 -0.000001 -0.000000 -34.617950 -8.518383 -27.793476 49.147562 1.146306 -3.881294 -22.569558 -1.113514 26.211660 -0.366802 -1.063366 -0.815504 -0.000000 0.000001 -0.000000 
